<svg id="Capa_1" data-name="Capa 1" xmlns="http://www.w3.org/2000/svg" viewBox="0 0 60.13 60.13"><rect width="60.13" height="60.13" style="fill:;fill-opacity:0"/><path d="M65.54,27.24H34.17a6.87,6.87,0,0,0-6.86,6.87V65.48a6.86,6.86,0,0,0,6.86,6.86H65.54a6.87,6.87,0,0,0,6.87-6.86V34.11A6.88,6.88,0,0,0,65.54,27.24ZM37.33,47.29h-5v-5h5Zm-5,5h5v5h-5Zm35.08-5h-5v-5h5Zm-5,5h5v5h-5Zm5-18.19v3.15h-5v-5h3.16A1.86,1.86,0,0,1,67.4,34.11ZM34.17,32.25h3.16v5h-5V34.11A1.85,1.85,0,0,1,34.17,32.25ZM32.32,65.48V62.32h5v5H34.17A1.85,1.85,0,0,1,32.32,65.48Zm35.08,0a1.85,1.85,0,0,1-1.86,1.85H62.38v-5h5Z" transform="translate(-19.79 -19.73)" style="fill:green"/></svg>