<svg id="Capa_1" data-name="Capa 1" xmlns="http://www.w3.org/2000/svg" viewBox="0 0 60.06 60.03"><path d="M66.09,30.45h0A3.59,3.59,0,1,0,69.69,34a3.59,3.59,0,0,0-3.6-3.59Zm13.78,7.19a22.76,22.76,0,0,0-1.38-7.3A14.81,14.81,0,0,0,75,25a14.1,14.1,0,0,0-5.32-3.45,21.91,21.91,0,0,0-7.3-1.41C59.21,20,58.19,20,50,20s-9.19,0-12.37.18a21.91,21.91,0,0,0-7.3,1.41A14.43,14.43,0,0,0,25,25a14.19,14.19,0,0,0-3.45,5.31,22,22,0,0,0-1.41,7.3C20,40.82,20,41.84,20,50s0,9.18.18,12.36a22,22,0,0,0,1.41,7.3A14.19,14.19,0,0,0,25,75a14.43,14.43,0,0,0,5.32,3.45,21.91,21.91,0,0,0,7.3,1.41C40.83,80,41.85,80,50,80s9.19,0,12.37-.18a21.91,21.91,0,0,0,7.3-1.41A14.1,14.1,0,0,0,75,75a14.46,14.46,0,0,0,3.48-5.31,22.76,22.76,0,0,0,1.38-7.3c0-3.18.18-4.2.18-12.36S80.05,40.82,79.87,37.64ZM74.48,61.91a16.67,16.67,0,0,1-1,5.55,9.16,9.16,0,0,1-2.24,3.44,9.59,9.59,0,0,1-3.45,2.23,16.83,16.83,0,0,1-5.57,1c-3,.15-4.1.18-12,.18s-9,0-12-.18a17.14,17.14,0,0,1-5.81-.9A9.62,9.62,0,0,1,29.13,71a8.77,8.77,0,0,1-2.22-3.43,16.44,16.44,0,0,1-1.2-5.67c0-3-.18-4.09-.18-11.94s0-8.95.18-11.93a16.71,16.71,0,0,1,1.05-5.68,9,9,0,0,1,2.37-3.28,9.52,9.52,0,0,1,3.29-2.39,17.26,17.26,0,0,1,5.69-1c3,0,4.11-.18,12-.18s9,0,12,.18a16.82,16.82,0,0,1,5.57,1,9.41,9.41,0,0,1,3.57,2.39,9.22,9.22,0,0,1,2.24,3.28,16.67,16.67,0,0,1,1,5.68c.15,3,.18,4.08.18,11.93S74.63,58.93,74.48,61.91ZM50.1,34.66a15.35,15.35,0,1,0,.09,0Zm0,25.25a9.94,9.94,0,1,1,10-9.94h0A10,10,0,0,1,50.1,59.91Z" transform="translate(-19.99 -19.99)" style="fill:#44474e"/></svg>