<svg id="Capa_1" data-name="Capa 1" xmlns="http://www.w3.org/2000/svg" viewBox="0 0 79.91 61.99"><path d="M89.93,40.78a37,37,0,0,0-3.31-16.55,10.4,10.4,0,0,0-6.24-4A256.89,256.89,0,0,0,50,19a257.31,257.31,0,0,0-30.28,1.2,10.14,10.14,0,0,0-5.3,3c-3.27,3.33-3.63,9-4,13.83a212.29,212.29,0,0,0,0,26,41.51,41.51,0,0,0,1.09,8,13,13,0,0,0,2.57,5.45,10.12,10.12,0,0,0,5.41,3.13,150.25,150.25,0,0,0,23.6,1.32,350.81,350.81,0,0,0,37-1.12,10,10,0,0,0,7.76-7.14A46.3,46.3,0,0,0,89.78,59C89.93,56.72,89.93,43.18,89.93,40.78ZM41.79,61.37V36.57L63.28,49C57.26,52.72,49.31,56.88,41.79,61.37Z" transform="translate(-10.03 -18.93)" style="fill:#030202"/></svg>